<svg width="145" height="32" viewBox="0 0 145 32" fill="none" xmlns="http://www.w3.org/2000/svg">
<g style="mix-blend-mode:hard-light">
<path d="M11.6707 29.328C11.6707 30.8227 10.214 31.57 7.30066 31.57C6.66732 31.57 6.28732 31.2533 6.16066 30.62C6.05932 29.9613 6.00866 29.1507 6.00866 28.188C6.00866 27.2253 6.07199 26.1993 6.19866 25.11C6.35066 23.9953 6.54066 22.792 6.76866 21.5C7.19932 19.0173 7.80732 16.3447 8.59266 13.482C9.40332 10.594 10.2013 8.36467 10.9867 6.794C9.39066 6.89533 7.80732 7.18667 6.23666 7.668C4.66599 8.124 3.55132 8.45333 2.89266 8.656C2.23399 8.83333 1.68932 8.922 1.25866 8.922C0.82799 8.922 0.612656 8.78267 0.612656 8.504C0.612656 8.17467 0.86599 7.69333 1.37266 7.06C1.87932 6.40133 2.60132 5.74267 3.53866 5.084C5.91999 3.46266 8.56732 2.63933 11.4807 2.614L23.9827 2.728C24.6667 2.728 25.0087 2.994 25.0087 3.526C25.0087 3.678 24.9073 3.95667 24.7047 4.362C24.502 4.742 24.3247 5.16 24.1727 5.616C23.8433 6.528 23.1467 6.984 22.0827 6.984C21.044 6.984 18.5487 6.908 14.5967 6.756C14.4953 7.87067 14.2927 9.302 13.9887 11.05C13.6847 12.7727 13.3553 14.66 13.0007 16.712C12.1393 21.956 11.696 26.1613 11.6707 29.328ZM34.2335 18.232C34.2335 17.32 33.6888 16.864 32.5995 16.864C31.5355 16.864 30.4841 17.7 29.4455 19.372C28.4068 21.0187 27.7608 22.7033 27.5075 24.426C27.5581 25.0087 27.6088 25.5913 27.6595 26.174C27.7101 26.7567 27.7355 27.3267 27.7355 27.884C27.7355 29.2267 27.2921 30.1387 26.4055 30.62C26.0001 30.848 25.6075 31.0633 25.2275 31.266C24.8728 31.4687 24.4548 31.57 23.9735 31.57C23.4921 31.57 23.0615 31.2533 22.6815 30.62C22.3268 29.9613 22.1495 28.948 22.1495 27.58C22.1495 23.7547 22.4281 20.436 22.9855 17.624C23.8468 13.2667 25.5568 8.60533 28.1155 3.64C28.4701 2.956 28.9895 2.62667 29.6735 2.652C30.3575 2.652 30.9148 3.12066 31.3455 4.058C31.7761 4.99533 31.9788 5.78067 31.9535 6.414C31.9535 7.04733 31.8521 7.668 31.6495 8.276C31.4721 8.85866 31.2315 9.44133 30.9275 10.024C30.6488 10.5813 30.3195 11.164 29.9395 11.772C29.5848 12.3547 29.2301 12.988 28.8755 13.672L28.3055 16.408C29.2935 14.7613 30.6235 13.6593 32.2955 13.102C32.9035 12.8993 33.5748 12.798 34.3095 12.798C36.0321 12.798 37.3368 13.1907 38.2235 13.976C39.1101 14.736 39.5535 15.8253 39.5535 17.244C39.5535 18.6373 39.3635 20.056 38.9835 21.5C38.6288 22.944 38.3628 23.9827 38.1855 24.616C38.0335 25.224 37.9575 25.7307 37.9575 26.136C37.9575 26.5413 38.0968 26.744 38.3755 26.744C38.7555 26.744 39.2241 26.5033 39.7815 26.022C40.3388 25.5407 40.8961 25.0213 41.4535 24.464C42.0108 23.8813 42.5175 23.3493 42.9735 22.868C43.4548 22.3867 43.7841 22.146 43.9615 22.146C44.3161 22.146 44.4935 22.5767 44.4935 23.438C44.4935 25.2113 43.6195 26.9213 41.8715 28.568C38.9328 30.2907 37.0581 31.152 36.2475 31.152C36.1715 31.152 36.1208 31.1393 36.0955 31.114C34.0688 31.114 33.0555 29.4927 33.0555 26.25C33.0555 24.8567 33.1821 23.5773 33.4355 22.412C33.7141 21.2467 33.9168 20.398 34.0435 19.866C34.1701 19.334 34.2335 18.7893 34.2335 18.232ZM81.5102 22.032C81.8902 22.032 82.0802 22.4627 82.0802 23.324C82.0802 25.1227 81.2442 26.8707 79.5722 28.568C77.9002 30.24 75.8609 31.0887 73.4542 31.114C71.7569 31.114 69.7935 30.4427 67.5642 29.1C65.9682 30.7973 63.9795 31.646 61.5982 31.646C60.0275 31.646 58.8749 31.2533 58.1402 30.468C57.4055 29.6827 57.0382 28.644 57.0382 27.352C57.0382 26.06 57.5069 25.0973 58.4442 24.464C59.4069 23.8053 60.6229 23.476 62.0922 23.476C62.8775 23.476 63.6122 23.514 64.2962 23.59C64.2962 20.4993 64.6382 17.4847 65.3222 14.546C64.4862 14.1153 63.7642 13.634 63.1562 13.102C62.5735 12.57 62.2822 12.152 62.2822 11.848C62.2822 11.0373 62.4595 10.632 62.8142 10.632C63.3209 10.632 63.8402 10.784 64.3722 11.088C64.9295 11.3667 65.5249 11.582 66.1582 11.734C67.7289 7.19933 69.8822 4.27333 72.6182 2.956C73.5809 2.5 74.5942 2.272 75.6582 2.272C79.6609 2.272 81.6622 3.95667 81.6622 7.326C81.6622 9.25133 80.9402 10.9107 79.4962 12.304C77.4949 14.2293 74.4549 15.2427 70.3762 15.344C70.0975 17.472 69.9582 19.9927 69.9582 22.906C69.9582 23.6153 69.8695 24.4133 69.6922 25.3C70.5789 25.756 71.4402 26.174 72.2762 26.554C73.1122 26.934 74.1382 27.124 75.3542 27.124C75.9875 27.124 76.6082 26.858 77.2162 26.326C77.8495 25.794 78.4322 25.2113 78.9642 24.578C79.5215 23.9447 80.0155 23.362 80.4462 22.83C80.8769 22.298 81.2315 22.032 81.5102 22.032ZM75.5822 5.996C73.4542 5.996 71.9089 8.02267 70.9462 12.076C72.7702 11.924 74.3029 11.4173 75.5442 10.556C76.8109 9.66933 77.4442 8.78267 77.4442 7.896C77.4442 6.62933 76.8235 5.996 75.5822 5.996ZM60.7242 27.618C60.7495 28.3273 61.2435 28.682 62.2062 28.682C63.1689 28.682 63.7769 28.1247 64.0302 27.01C63.3209 26.6553 62.7382 26.478 62.2822 26.478C61.2689 26.478 60.7495 26.858 60.7242 27.618ZM84.8465 31.114C82.3132 31.114 81.0465 28.7453 81.0465 24.008C81.0465 21.424 81.3632 19.0807 81.9965 16.978C82.9845 13.7353 84.0992 12.114 85.3405 12.114C86.0752 12.114 86.6578 12.608 87.0885 13.596C87.4432 14.356 87.6078 15.1033 87.5825 15.838C87.5825 16.8513 87.2785 18.6373 86.6705 21.196C86.0878 23.4253 85.7965 24.806 85.7965 25.338C85.7965 25.87 85.9232 26.2373 86.1765 26.44C86.4552 26.6427 86.7718 26.744 87.1265 26.744C87.5065 26.744 87.9752 26.5033 88.5325 26.022C89.0898 25.5407 89.6472 25.0213 90.2045 24.464C90.7618 23.8813 91.2685 23.3493 91.7245 22.868C92.2058 22.3867 92.5352 22.146 92.7125 22.146C93.0672 22.146 93.2445 22.5767 93.2445 23.438C93.2445 25.2113 92.3452 26.9467 90.5465 28.644C88.7732 30.316 86.8732 31.1393 84.8465 31.114ZM86.4045 9.036C85.7205 8.02267 85.3785 6.93333 85.3785 5.768C85.3785 4.60267 85.5558 3.64 85.9105 2.88C86.2905 2.09467 86.6452 1.52467 86.9745 1.17C87.3038 0.789999 87.6838 0.6 88.1145 0.6C88.8238 0.6 89.4698 1.132 90.0525 2.196C90.6352 3.23467 90.9265 4.10867 90.9265 4.818C90.9265 6.13533 90.4578 7.174 89.5205 7.934C88.6085 8.66867 87.5698 9.036 86.4045 9.036ZM112.169 19.448C112.169 18.612 111.688 18.194 110.725 18.194C110.066 18.194 109.332 18.84 108.521 20.132C107.71 21.3987 107.128 22.7667 106.773 24.236V24.312C106.773 25.1733 106.9 26.06 107.153 26.972C107.432 27.884 107.571 28.5173 107.571 28.872C107.571 29.7333 106.494 30.582 104.341 31.418C104.012 31.5447 103.72 31.608 103.467 31.608C102.834 31.608 102.39 31.2787 102.137 30.62C101.909 29.9613 101.795 29.0747 101.795 27.96C101.795 26.82 101.82 25.756 101.871 24.768C101.947 23.7547 102.01 22.83 102.061 21.994C102.137 21.1327 102.2 20.3853 102.251 19.752C102.327 19.0933 102.365 18.5613 102.365 18.156C102.365 17.2947 101.972 16.864 101.187 16.864C100.402 16.864 99.4897 17.7887 98.4511 19.638C97.4124 21.462 96.8931 22.9187 96.8931 24.008C96.8931 25.072 97.0197 26.06 97.2731 26.972C97.5517 27.884 97.6911 28.5173 97.6911 28.872C97.6911 29.7333 96.6144 30.582 94.4611 31.418C94.1317 31.5447 93.8404 31.608 93.5871 31.608C92.9537 31.608 92.5104 31.2787 92.2571 30.62C92.0291 29.9613 91.9151 28.948 91.9151 27.58C91.9151 23.9827 92.0544 21.386 92.3331 19.79C92.7131 17.434 93.5744 15.2047 94.9171 13.102C95.3731 12.3927 95.8671 12.038 96.3991 12.038C97.2351 12.038 98.0077 12.722 98.7171 14.09C98.9197 14.4447 99.0717 14.774 99.1731 15.078C100.389 13.558 101.82 12.798 103.467 12.798C104.556 12.798 105.532 13.1653 106.393 13.9C107.254 14.6093 107.685 15.5087 107.685 16.598V17.016C109.23 15.0907 111.118 14.128 113.347 14.128C114.715 14.128 115.754 14.4827 116.463 15.192C117.172 15.9013 117.527 16.7753 117.527 17.814C117.527 18.8527 117.451 19.79 117.299 20.626C117.147 21.462 116.97 22.2473 116.767 22.982C116.59 23.7167 116.425 24.3753 116.273 24.958C116.121 25.5153 116.045 25.9587 116.045 26.288C116.045 26.592 116.146 26.744 116.349 26.744C116.729 26.744 117.198 26.5033 117.755 26.022C118.312 25.5407 118.87 25.0213 119.427 24.464C119.984 23.8813 120.491 23.3493 120.947 22.868C121.428 22.3867 121.758 22.146 121.935 22.146C122.29 22.146 122.467 22.5767 122.467 23.438C122.467 25.2113 121.568 26.934 119.769 28.606C117.996 30.278 116.096 31.114 114.069 31.114C112.245 31.114 111.333 29.4547 111.333 26.136C111.333 25.3 111.472 24.1473 111.751 22.678C112.03 21.2087 112.169 20.132 112.169 19.448ZM143.882 22.032C144.338 22.032 144.566 22.6147 144.566 23.78C144.566 24.4133 144.3 25.186 143.768 26.098C143.236 26.9847 142.539 27.808 141.678 28.568C140.842 29.3027 139.905 29.9107 138.866 30.392C137.827 30.8733 136.814 31.114 135.826 31.114C134.483 31.114 133.584 29.936 133.128 27.58C132.469 28.6693 131.608 29.5687 130.544 30.278C129.48 30.962 128.049 31.304 126.25 31.304C124.477 31.304 123.045 30.7467 121.956 29.632C120.867 28.5173 120.335 27.162 120.36 25.566C120.36 21.2593 121.791 17.8647 124.654 15.382C125.87 14.3433 126.997 13.6593 128.036 13.33C129.1 13.0007 130.215 12.836 131.38 12.836C132.545 12.836 133.495 13.0387 134.23 13.444C134.585 12.7093 134.99 12.342 135.446 12.342C136.333 12.342 137.169 12.7347 137.954 13.52C138.765 14.28 139.17 15.002 139.17 15.686C138.815 16.522 138.296 17.5227 137.612 18.688C137.409 19.8533 137.308 21.4873 137.308 23.59C137.308 25.6927 137.574 26.744 138.106 26.744C138.765 26.744 140.361 25.4267 142.894 22.792C143.35 22.2853 143.679 22.032 143.882 22.032ZM125.946 24.312C125.946 26.2627 126.668 27.238 128.112 27.238C129.657 27.2127 130.937 26.3893 131.95 24.768C132.305 24.2107 132.596 23.5267 132.824 22.716C132.824 19.8787 133.077 17.4467 133.584 15.42C131.532 15.8253 129.746 16.8133 128.226 18.384C126.706 19.9547 125.946 21.9307 125.946 24.312Z" fill="white"/>
</g>
</svg>
